<?xml version="1.0" encoding="UTF-8"?><svg id="Camada_2" xmlns="http://www.w3.org/2000/svg" viewBox="0 0 2000.43 1500"><defs><style>.cls-1{fill:#5ab947;}.cls-1,.cls-2,.cls-3{fill-rule:evenodd;}.cls-1,.cls-2,.cls-3,.cls-4,.cls-5,.cls-6,.cls-7{stroke-width:0px;}.cls-2{fill:#4d4d4f;}.cls-3{fill:#faa921;}.cls-8{fill:none;stroke:#4c4d4f;stroke-miterlimit:10;stroke-width:7px;}.cls-4{fill:#4a4c4e;}.cls-5{fill:#de761c;}.cls-6{fill:#fff;}.cls-7{fill:#0094d9;}</style></defs><g id="Camada_1-2"><path class="cls-5" d="m3.5,749.75h1993.43v650c0,55.19-44.81,100-100,100H3.5v-750h0Z"/><path class="cls-6" d="m2.72,0h1993.43v650c0,55.19-44.81,100-100,100H2.72V0h0Z" transform="translate(1998.88 750) rotate(180)"/><path class="cls-3" d="m627.41,552.3h-21.41s-55.4,6.19-88.75-41.87c-15.65-24.39-174.74-261.34-174.74-261.34l-110.95,303.22h-72.62l125.19-355.77h109.38l233.9,355.77Z"/><path class="cls-1" d="m265.3,552.3h21.45s55.44,6.19,88.79-41.87c15.73-24.39,174.72-261.34,174.72-261.34l111.01,303.22h72.62l-125.3-355.77h-109.27l-234.01,355.77Z"/><polygon class="cls-7" points="446.41 404.4 404.16 341.21 446.41 276.99 488.67 341.21 446.41 404.4"/><path class="cls-2" d="m961,397.79c-4.02,0-7.3.08-9.72.26-2.5,0-4.48.36-5.88.8-1.37.39-2.37,1.03-2.99,1.93-.64.83-1.16,1.88-1.65,3.22l-47.6,136.83c-.95,2.81-1.55,5.03-1.75,6.65-.26,1.7,0,3.02.8,3.97.8.85,2.22,1.42,4.28,1.7,2.07.18,4.95.31,8.61.31,3.43,0,6.14-.05,8.22-.26,2.14-.13,3.76-.39,4.87-.8,1.16-.44,2.01-1.11,2.53-1.8.54-.77,1.01-1.73,1.34-2.86l9.72-30.11h57.96l10.39,30.97c.23,1.06.64,1.86,1.16,2.5.49.67,1.34,1.11,2.5,1.52,1.16.41,2.94.54,5.13.59,2.32.21,5.44.26,9.54.26s6.99-.13,9.2-.31c2.22-.13,3.74-.64,4.59-1.47.9-.85,1.26-2.17,1-3.76-.26-1.7-.85-3.97-1.85-6.81l-47.65-136.81c-.46-1.52-1.06-2.66-1.75-3.53-.67-.9-1.78-1.55-3.38-1.93-1.52-.44-3.64-.8-6.39-.8-2.78-.18-6.55-.26-11.24-.26m-22.31,95.71l21.94-65.52,21.81,65.52h-43.76Zm244.84-95.45c-2.91,0-5.18.13-7.04.36-1.83.13-3.33.44-4.38.98-1.21.44-1.99.98-2.37,1.65-.52.62-.75,1.31-.75,2.06v72.43c0,5.49.03,11.22.13,17.33.1,5.98.36,11.83.46,17.33-1.47-3.15-2.91-6.32-4.39-9.49l-4.69-9.67c-1.55-3.35-3.27-6.65-5.03-9.9l-5.08-10.18-30.06-56.36c-1.52-3.07-2.97-5.62-4.39-7.68-1.47-2.17-3.01-3.84-4.69-5.05-1.6-1.21-3.43-2.01-5.49-2.45-2.06-.59-4.56-.88-7.61-.88h-16.76c-3.22,0-5.93.98-8.14,2.81-2.11,1.88-3.22,4.64-3.22,8.43v138.59c0,.8.18,1.52.59,2.17.42.64,1.16,1.19,2.17,1.7,1.01.39,2.53.67,4.28.95,1.86.18,4.13.31,6.91.31s5.18-.13,7.04-.31c1.8-.28,3.27-.57,4.33-.95,1.05-.52,1.8-1.06,2.22-1.7.46-.64.7-1.37.7-2.17v-80.68c0-6.03-.05-11.91-.23-17.56-.15-5.7-.36-11.4-.46-17.15,1.8,4.69,3.87,9.51,6.19,14.57,2.27,4.92,4.59,9.57,6.86,13.82l38.26,72.12c2.06,3.97,3.84,7.22,5.39,9.8,1.62,2.45,3.27,4.43,4.95,5.93,1.75,1.47,3.61,2.42,5.57,3.02,2.06.49,4.54.83,7.32.83h13.33c1.52,0,2.92-.21,4.39-.62,1.57-.44,2.81-1.21,3.84-2.14,1.11-.93,1.96-2.17,2.6-3.61.67-1.34.95-3.02.95-4.82v-138.74c0-.75-.21-1.44-.54-2.06-.47-.67-1.16-1.21-2.17-1.65-1.01-.54-2.37-.85-4.13-.98-1.88-.23-4.21-.36-6.86-.36m113.91.46h-38.78c-2.63,0-4.82.83-6.65,2.37-1.7,1.52-2.66,3.97-2.66,7.5v134.51c0,3.48.95,6.03,2.66,7.61,1.83,1.55,4.02,2.27,6.65,2.27h41.05c6.14,0,11.78-.36,16.81-1.08,5.03-.77,9.87-1.99,14.26-3.58,4.49-1.55,8.56-3.64,12.2-6.06,3.71-2.48,6.93-5.39,9.51-8.79,2.76-3.45,4.82-7.32,6.29-11.81,1.55-4.43,2.32-9.41,2.32-14.9s-.83-9.98-2.43-14.26c-1.52-4.18-3.74-7.81-6.55-10.93-2.66-3.12-5.88-5.75-9.67-7.73-3.63-1.99-7.6-3.38-12.04-4.2,3.43-1.21,6.45-2.91,9.08-5.03,2.71-2.01,4.97-4.43,6.78-7.12,1.88-2.71,3.22-5.7,4.2-8.9,1.01-3.38,1.44-6.86,1.44-10.65,0-6.68-1.21-12.45-3.56-17.4-2.42-4.9-5.91-8.97-10.39-12.2-4.43-3.27-9.98-5.62-16.55-7.25-6.5-1.55-14.52-2.37-23.98-2.37m-17.27,63.5v-40.02h15.86c4.85,0,8.71.41,11.55,1.29,2.97.88,5.34,2.17,7.3,3.87,1.91,1.57,3.33,3.58,4.28,6.01.9,2.45,1.39,5.26,1.39,8.38,0,2.76-.39,5.41-1.29,7.99-.88,2.45-2.22,4.69-4.05,6.55-1.76,1.86-3.97,3.27-6.68,4.38-2.74,1.06-6.32,1.55-10.83,1.55h-17.53Zm0,66.78v-43.86h18.59c5.72,0,10.36.57,13.95,1.57,3.56,1.01,6.5,2.45,8.84,4.36,2.27,1.99,4,4.33,5.16,7.17,1.26,2.76,1.8,5.93,1.8,9.57,0,3.43-.54,6.45-1.86,9.15-1.16,2.6-2.94,4.9-5.11,6.7-2.14,1.73-4.77,3.07-7.78,4.02-2.94.9-6.55,1.31-10.93,1.31h-22.66Zm137.94-131c-3.04,0-5.49.13-7.5.39-2.04.23-3.69.57-4.9.9-1.21.41-2.06.95-2.6,1.55-.46.67-.72,1.37-.72,2.17v145.7c0,.75.26,1.5.72,2.11.54.67,1.39,1.16,2.6,1.6,1.21.39,2.79.67,4.75.95,2.06.18,4.62.31,7.66.31s5.62-.13,7.61-.31c2.01-.28,3.61-.57,4.77-.95,1.21-.44,2.07-.93,2.48-1.6.59-.62.85-1.37.85-2.11v-145.7c0-.8-.26-1.5-.85-2.17-.41-.59-1.27-1.13-2.48-1.55-1.16-.34-2.76-.67-4.77-.9-1.99-.26-4.54-.39-7.61-.39m234.6.72h-21.04c-2.97,0-5.54.34-7.81.98-2.16.54-4.17,1.55-5.8,2.97-1.65,1.44-3.07,3.27-4.28,5.59-1.19,2.29-2.4,5.13-3.3,8.48l-35.12,91.61-33.39-91.89c-.95-3.33-2.06-6.08-3.33-8.3-1.24-2.29-2.86-4.15-4.77-5.49-1.86-1.42-4.18-2.42-6.76-2.97-2.66-.64-5.78-.98-9.41-.98h-20.55c-3.53,0-6.39,1.08-8.51,3.22-2.17,2.17-3.28,5.26-3.28,9.28v137.48c0,.75.21,1.5.54,2.11.57.67,1.32,1.16,2.43,1.6,1.21.39,2.73.67,4.64.95,1.91.18,4.33.31,7.14.31,2.99,0,5.34-.13,7.17-.31,1.91-.28,3.45-.57,4.62-.95,1.21-.44,2.06-.93,2.42-1.6.46-.62.75-1.37.75-2.11l.26-125.59,43.11,125.44c.26.9.7,1.65,1.42,2.27.75.67,1.65,1.21,2.86,1.68,1.27.41,2.92.75,4.8.88,1.86.18,4.13.31,6.88.31s4.98-.05,6.91-.26c1.91-.05,3.45-.23,4.62-.64,1.36-.46,2.27-.95,3.04-1.6.7-.7,1.19-1.52,1.54-2.63l44.97-125.44v125.59c0,.75.21,1.5.67,2.11.49.67,1.24,1.16,2.4,1.6,1.11.39,2.58.67,4.49.95,1.91.18,4.33.31,7.17.31s5.39-.13,7.3-.31c1.91-.28,3.38-.57,4.49-.95,1.18-.44,2.01-.93,2.4-1.6.56-.62.77-1.37.77-2.11v-137.48c-.05-1.96-.31-3.69-.88-5.21-.49-1.6-1.24-2.94-2.29-3.97-.93-1.11-2.17-1.96-3.79-2.45-1.49-.59-3.32-.88-5.49-.88m118.19-.72c-4.07,0-7.3.08-9.82.26-2.4,0-4.33.36-5.78.8-1.37.39-2.37,1.03-2.97,1.93-.67.83-1.21,1.88-1.68,3.22l-47.59,136.83c-.95,2.81-1.55,5.03-1.76,6.65-.21,1.7,0,3.02.8,3.97.83.85,2.27,1.42,4.33,1.7,2.06.18,4.9.31,8.61.31,3.33,0,6.13-.05,8.17-.26,2.17-.13,3.82-.39,4.87-.8,1.21-.44,2.01-1.11,2.48-1.8.59-.77,1.01-1.73,1.37-2.86l9.69-30.11h58.01l10.34,30.97c.36,1.06.75,1.86,1.21,2.5.49.67,1.31,1.11,2.45,1.52,1.21.41,2.94.54,5.21.59,2.27.21,5.49.26,9.51.26s6.94-.13,9.15-.31c2.22-.13,3.84-.64,4.64-1.47.9-.85,1.21-2.17.95-3.76-.21-1.7-.8-3.97-1.7-6.81l-47.75-136.81c-.49-1.52-1.05-2.66-1.8-3.53-.62-.9-1.73-1.55-3.27-1.93-1.52-.44-3.74-.8-6.5-.8-2.78-.18-6.5-.26-11.19-.26m-22.3,95.71l21.97-65.52,21.79,65.52h-43.75Z"/><path class="cls-4" d="m974.46,303.75h-14.45l-8.52-27.38h-37.43l-8.37,27.38h-14.45l32.55-104.21h17.96l32.7,104.21Zm-57.66-38.04h31.94l-15.96-50.49h-.15l-15.83,50.49Z"/><path class="cls-4" d="m1045.24,227.69v76.06h-11.42l-.76-9.27h-.31c-6.23,7.76-14.45,10.79-24.03,10.79-15.35,0-23.57-9.42-23.57-23.11v-54.46h12.17v53.7c0,8.96,7.15,13.99,16.13,13.99s19.62-6.23,19.62-17.79v-49.9h12.17Z"/><path class="cls-4" d="m1068.41,287.48v-50.05h-12.49v-7.46l12.49-2.27,5.01-21.3h7.15v21.3h21v9.74h-21v49.29c0,6.23,2.59,7.91,8.37,7.91h12.63v7.91c-6.09,1.83-9.59,2.73-14.91,2.73-14.61,0-18.25-8.2-18.25-17.79Z"/><path class="cls-4" d="m1111.04,265.71c0-23.43,8.81-39.55,33.01-39.55s33.16,16.13,33.16,39.55-8.83,39.55-33.16,39.55-33.01-15.96-33.01-39.55Zm12.77,0c0,16.59,4.56,29.21,20.24,29.21s20.38-12.62,20.38-29.21-4.56-29.21-20.38-29.21-20.24,12.63-20.24,29.21Z"/><path class="cls-4" d="m1193.98,303.75v-76.06h11.42l.76,12.77h.3c5.02-10.03,15.22-14.3,24.79-14.3v12.32h-3.03c-13.69,0-22.06,8.98-22.06,19.63v45.63h-12.17Z"/><path class="cls-4" d="m1244.21,303.75v-76.06h11.42l.76,12.77h.3c5.02-10.03,15.22-14.3,24.79-14.3v12.32h-3.03c-13.69,0-22.06,8.98-22.06,19.63v45.63h-12.17Z"/><path class="cls-4" d="m1304.33,269.37c.3,14.3,5.32,25.25,20.08,25.25h25.09v7.91c-9.59,1.98-17.64,2.73-25.09,2.73-24.2,0-33.01-15.96-33.01-39.55s10.35-39.55,34.83-39.55c19.03,0,28.3,11.27,28.3,22.52,0,10.2-4.56,20.69-22.21,20.69h-27.99Zm.15-8.52h24.79c10.2,0,13.08-6.08,13.08-11.71,0-6.24-5.78-12.32-16.42-12.32-14.3,0-20.54,10.49-21.45,24.03Z"/><path class="cls-4" d="m1418.45,294.48h-.3c-5.93,7.76-12.32,10.79-21.61,10.79-21.14,0-29.04-15.81-29.04-39.39s10.35-38.18,33.62-38.18h29.5v68.45c0,23.59-8.83,39.55-33.16,39.55-7.46,0-14.15-.76-23.89-2.73v-7.91h24.5c15.81,0,20.38-12.32,20.38-27.69v-2.88Zm0-56.59h-16.74c-15.81,0-21.45,12.01-21.45,27.99s3.81,29.36,20.08,29.36c8.83,0,18.1-6.24,18.1-17.96v-39.39Z"/><path class="cls-4" d="m1509.02,227.69v76.06h-11.42l-.76-9.27h-.31c-6.23,7.76-14.45,10.79-24.03,10.79-15.35,0-23.57-9.42-23.57-23.11v-54.46h12.17v53.7c0,8.96,7.15,13.99,16.13,13.99s19.62-6.23,19.62-17.79v-49.9h12.17Z"/><path class="cls-4" d="m1527.31,197.27h12.17v89.45c0,6.54,1.52,7.91,11.4,7.91v9.88c-20.53,1.53-23.57-3.81-23.57-17.79v-89.45Z"/><path class="cls-4" d="m1563.85,236.82v-7.91c9.74-1.68,19.32-2.75,27.23-2.75,17.03,0,26.92,5.63,26.92,24.81v52.78h-11.4l-.77-9.27h-.3c-6.69,8.52-13.69,10.79-23.43,10.79-14.3,0-23.43-8.81-23.43-22.21,0-16.74,11.4-22.67,25.86-22.67h21.28v-8.81c0-9.44-3.03-14.76-15.81-14.76h-26.16Zm41.98,32.25h-18.55c-10.66,0-16.42,4.4-16.42,13.38s6.99,12.93,15.96,12.93c8.37,0,19.01-5.63,19.01-17.79v-8.52Z"/><path class="cls-4" d="m1663.06,304.97c-20.69-1.83-28.29-17.2-28.29-39.26,0-23.43,8.81-39.55,33.01-39.55,7.45,0,13.23.77,22.82,2.75v7.91h-22.82c-15.68,0-20.24,12.32-20.24,28.9s4.56,28.91,20.24,28.91h22.82v7.91c-8.83,1.83-14.46,2.59-21,2.73v6.24c5.02.61,12.49,3.66,12.49,10.95s-5.17,11.71-14.76,11.71c-3.51,0-6.69-.31-10.49-1.37v-4.88h8.98c4.25,0,6.84-1.66,6.84-5.17s-2.44-6.23-9.59-6.84v-10.95Z"/><path class="cls-4" d="m1704.95,236.82v-7.91c9.74-1.68,19.32-2.75,27.23-2.75,17.03,0,26.92,5.63,26.92,24.81v52.78h-11.4l-.76-9.27h-.31c-6.69,8.52-13.69,10.79-23.43,10.79-14.3,0-23.43-8.81-23.43-22.21,0-16.74,11.4-22.67,25.86-22.67h21.3v-8.81c0-9.44-3.05-14.76-15.83-14.76h-26.16Zm18.55-26.62c-4.25,0-8.52,2.13-12.01,5.47l-3.2-6.84c4.71-5.78,9.42-8.07,15.21-8.07,7,0,12.49,5.02,17.49,5.02,4.27,0,8.52-2.13,12.02-5.47l3.2,6.84c-4.88,5.78-9.44,8.22-15.22,8.22-5.47,0-12.62-5.17-17.49-5.17Zm23.44,58.88h-18.56c-10.66,0-16.42,4.4-16.42,13.38s6.99,12.93,15.96,12.93c8.37,0,19.03-5.63,19.03-17.79v-8.52Z"/><path class="cls-4" d="m1776.49,265.71c0-23.43,8.81-39.55,33.01-39.55s33.16,16.13,33.16,39.55-8.83,39.55-33.16,39.55-33.01-15.96-33.01-39.55Zm12.77,0c0,16.59,4.56,29.21,20.24,29.21s20.38-12.62,20.38-29.21-4.56-29.21-20.38-29.21-20.24,12.63-20.24,29.21Z"/><path class="cls-8" d="m103.5,3.5h1893.43v1393c0,55.19-44.81,100-100,100H3.5V103.5C3.5,48.31,48.31,3.5,103.5,3.5Z"/><path class="cls-6" d="m452.15,1171.86c-6.44,2.31-19.14,6.11-34.15,6.11-16.83,0-30.69-4.29-41.58-14.68-9.57-9.24-15.51-24.09-15.51-41.41.17-33.16,22.93-57.42,60.22-57.42,12.87,0,22.93,2.8,27.72,5.11l-3.46,11.71c-5.94-2.64-13.36-4.78-24.58-4.78-27.06,0-44.71,16.83-44.71,44.71s16.99,44.88,42.9,44.88c9.4,0,15.84-1.32,19.14-2.97v-33.16h-22.6v-11.55h36.63v53.46Z"/><path class="cls-6" d="m479.77,1139.52c.33,19.63,12.87,27.72,27.39,27.72,10.39,0,16.66-1.82,22.11-4.12l2.48,10.39c-5.11,2.31-13.86,4.95-26.56,4.95-24.58,0-39.27-16.17-39.27-40.26s14.19-43.06,37.45-43.06c26.07,0,33,22.93,33,37.62,0,2.97-.33,5.28-.49,6.76h-56.1Zm42.57-10.39c.17-9.24-3.79-23.59-20.13-23.59-14.68,0-21.12,13.53-22.27,23.59h42.4Z"/><path class="cls-6" d="m547.88,1161.96c4.29,2.8,11.88,5.78,19.14,5.78,10.56,0,15.51-5.28,15.51-11.88,0-6.93-4.12-10.72-14.85-14.68-14.35-5.11-21.12-13.03-21.12-22.6,0-12.87,10.39-23.43,27.55-23.43,8.08,0,15.18,2.31,19.63,4.95l-3.63,10.56c-3.13-1.98-8.91-4.62-16.33-4.62-8.58,0-13.36,4.95-13.36,10.89,0,6.6,4.78,9.57,15.18,13.53,13.86,5.28,20.95,12.21,20.95,24.09,0,14.02-10.89,23.92-29.86,23.92-8.74,0-16.83-2.15-22.44-5.45l3.63-11.05Z"/><path class="cls-6" d="m629.94,1074.02v22.93h20.79v11.05h-20.79v43.06c0,9.9,2.81,15.51,10.89,15.51,3.79,0,6.6-.5,8.41-.99l.66,10.89c-2.81,1.16-7.26,1.98-12.87,1.98-6.76,0-12.21-2.15-15.67-6.11-4.12-4.29-5.61-11.38-5.61-20.79v-43.56h-12.37v-11.05h12.37v-19.14l14.19-3.79Z"/><path class="cls-6" d="m708.24,1176.81l-1.15-10.06h-.5c-4.46,6.27-13.03,11.88-24.42,11.88-16.17,0-24.42-11.38-24.42-22.93,0-19.3,17.16-29.86,48.01-29.7v-1.65c0-6.6-1.81-18.48-18.15-18.48-7.42,0-15.18,2.31-20.79,5.94l-3.3-9.57c6.6-4.29,16.17-7.09,26.23-7.09,24.42,0,30.36,16.66,30.36,32.67v29.86c0,6.93.33,13.7,1.32,19.14h-13.2Zm-37.29-93.55c-.33-10.72,4.12-17.16,11.22-17.16,3.63,0,6.43,1.49,10.23,3.63,2.64,1.49,4.95,2.81,6.93,2.81,2.64,0,4.12-1.49,4.62-7.09h7.59c.33,11.05-3.46,16.66-11.22,16.66-3.46,0-6.6-1.49-10.06-3.3-3.3-1.98-5.11-2.97-7.09-2.97-2.64,0-3.96,2.8-4.29,7.42h-7.92Zm35.14,52.8c-15.84-.33-33.82,2.47-33.82,17.98,0,9.41,6.27,13.86,13.69,13.86,10.39,0,16.99-6.6,19.3-13.37.49-1.48.82-3.13.82-4.62v-13.86Z"/><path class="cls-6" d="m811.63,1136.22c0,29.53-20.46,42.4-39.76,42.4-21.61,0-38.28-15.84-38.28-41.08,0-26.73,17.49-42.4,39.6-42.4s38.44,16.66,38.44,41.08Zm-63.36.82c0,17.49,10.06,30.69,24.25,30.69s24.25-13.04,24.25-31.02c0-13.53-6.77-30.69-23.92-30.69s-24.58,15.84-24.58,31.02Z"/><path class="cls-6" d="m933.89,1059.67v96.52c0,7.09.17,15.18.66,20.62h-13.03l-.66-13.86h-.33c-4.46,8.91-14.19,15.67-27.22,15.67-19.3,0-34.15-16.33-34.15-40.59-.16-26.56,16.33-42.9,35.8-42.9,12.21,0,20.46,5.78,24.09,12.21h.33v-47.68h14.52Zm-14.52,69.79c0-1.81-.17-4.29-.66-6.1-2.15-9.24-10.06-16.83-20.95-16.83-15.01,0-23.92,13.2-23.92,30.85,0,16.17,7.92,29.53,23.59,29.53,9.73,0,18.64-6.43,21.28-17.32.49-1.98.66-3.96.66-6.27v-13.86Z"/><path class="cls-6" d="m962.26,1139.52c.33,19.63,12.87,27.72,27.39,27.72,10.39,0,16.66-1.82,22.11-4.12l2.48,10.39c-5.12,2.31-13.86,4.95-26.56,4.95-24.58,0-39.27-16.17-39.27-40.26s14.19-43.06,37.45-43.06c26.07,0,33,22.93,33,37.62,0,2.97-.33,5.28-.5,6.76h-56.1Zm42.57-10.39c.17-9.24-3.79-23.59-20.13-23.59-14.68,0-21.12,13.53-22.27,23.59h42.4Z"/><path class="cls-6" d="m1072.31,1067.09c7.26-1.48,17.65-2.31,27.55-2.31,15.34,0,25.24,2.8,32.17,9.07,5.61,4.95,8.75,12.54,8.75,21.12,0,14.68-9.24,24.42-20.95,28.38v.5c8.58,2.97,13.69,10.89,16.33,22.44,3.63,15.51,6.27,26.23,8.58,30.52h-14.85c-1.81-3.13-4.29-12.7-7.42-26.56-3.3-15.34-9.24-21.12-22.27-21.61h-13.53v48.18h-14.35v-109.72Zm14.35,50.65h14.68c15.34,0,25.08-8.42,25.08-21.12,0-14.35-10.39-20.62-25.57-20.79-6.93,0-11.88.66-14.19,1.32v40.59Z"/><path class="cls-6" d="m1165.26,1139.52c.33,19.63,12.87,27.72,27.39,27.72,10.4,0,16.67-1.82,22.11-4.12l2.48,10.39c-5.12,2.31-13.86,4.95-26.56,4.95-24.58,0-39.27-16.17-39.27-40.26s14.19-43.06,37.45-43.06c26.07,0,33,22.93,33,37.62,0,2.97-.33,5.28-.5,6.76h-56.1Zm42.57-10.39c.17-9.24-3.79-23.59-20.13-23.59-14.68,0-21.12,13.53-22.27,23.59h42.4Z"/><path class="cls-6" d="m1294.17,1173.84c-3.79,1.98-12.21,4.62-22.93,4.62-24.09,0-39.76-16.33-39.76-40.75s16.83-42.4,42.9-42.4c8.58,0,16.17,2.15,20.13,4.12l-3.3,11.22c-3.46-1.98-8.91-3.79-16.83-3.79-18.31,0-28.21,13.53-28.21,30.19,0,18.48,11.88,29.86,27.72,29.86,8.25,0,13.69-2.15,17.82-3.96l2.47,10.89Z"/><path class="cls-6" d="m1373.14,1155.03c0,8.25.17,15.51.66,21.78h-12.87l-.83-13.03h-.33c-3.79,6.43-12.21,14.85-26.4,14.85-12.54,0-27.55-6.93-27.55-34.98v-46.69h14.52v44.22c0,15.18,4.62,25.41,17.82,25.41,9.73,0,16.5-6.76,19.14-13.2.83-2.15,1.32-4.79,1.32-7.42v-49h14.52v58.08Z"/><path class="cls-6" d="m1392.64,1121.87c0-9.41-.17-17.49-.66-24.91h12.7l.5,15.67h.66c3.63-10.72,12.37-17.49,22.11-17.49,1.65,0,2.8.17,4.12.5v13.69c-1.48-.33-2.97-.5-4.95-.5-10.23,0-17.49,7.75-19.47,18.64-.33,1.98-.66,4.29-.66,6.76v42.57h-14.35v-54.94Z"/><path class="cls-6" d="m1441.86,1161.96c4.29,2.8,11.88,5.78,19.14,5.78,10.56,0,15.51-5.28,15.51-11.88,0-6.93-4.12-10.72-14.85-14.68-14.35-5.11-21.12-13.03-21.12-22.6,0-12.87,10.39-23.43,27.55-23.43,8.08,0,15.18,2.31,19.63,4.95l-3.63,10.56c-3.13-1.98-8.91-4.62-16.33-4.62-8.58,0-13.36,4.95-13.36,10.89,0,6.6,4.78,9.57,15.18,13.53,13.86,5.28,20.95,12.21,20.95,24.09,0,14.02-10.89,23.92-29.86,23.92-8.75,0-16.83-2.15-22.44-5.45l3.63-11.05Z"/><path class="cls-6" d="m1577.78,1136.22c0,29.53-20.46,42.4-39.76,42.4-21.61,0-38.28-15.84-38.28-41.08,0-26.73,17.49-42.4,39.6-42.4s38.44,16.66,38.44,41.08Zm-63.36.82c0,17.49,10.06,30.69,24.25,30.69s24.25-13.04,24.25-31.02c0-13.53-6.76-30.69-23.92-30.69s-24.58,15.84-24.58,31.02Z"/><path class="cls-6" d="m1589.18,1161.96c4.29,2.8,11.88,5.78,19.14,5.78,10.56,0,15.51-5.28,15.51-11.88,0-6.93-4.12-10.72-14.85-14.68-14.35-5.11-21.12-13.03-21.12-22.6,0-12.87,10.39-23.43,27.55-23.43,8.08,0,15.18,2.31,19.63,4.95l-3.63,10.56c-3.13-1.98-8.91-4.62-16.33-4.62-8.58,0-13.36,4.95-13.36,10.89,0,6.6,4.78,9.57,15.18,13.53,13.86,5.28,20.95,12.21,20.95,24.09,0,14.02-10.89,23.92-29.86,23.92-8.75,0-16.83-2.15-22.44-5.45l3.63-11.05Z"/></g></svg>